<?xml version="1.0" standalone="no"?>
<!DOCTYPE svg PUBLIC "-//W3C//DTD SVG 20010904//EN"
 "http://www.w3.org/TR/2001/REC-SVG-20010904/DTD/svg10.dtd">
<svg version="1.0" xmlns="http://www.w3.org/2000/svg"
 width="2496.000000pt" height="2496.000000pt" viewBox="0 0 2496.000000 2496.000000"
 preserveAspectRatio="xMidYMid meet">
<metadata>
Created by potrace 1.14, written by Peter Selinger 2001-2017
</metadata>
<g transform="translate(0.000000,2496.000000) scale(0.100000,-0.100000)"
fill="#000000" stroke="none">
<path d="M10647 16314 c-1 -1 -63 -4 -137 -8 -74 -3 -146 -8 -160 -10 -14 -3
-47 -7 -75 -10 -27 -3 -50 -5 -50 -6 0 -3 -77 -18 -125 -25 -14 -3 -35 -7 -47
-10 -13 -3 -31 -7 -42 -9 -85 -19 -302 -90 -343 -112 -15 -8 -30 -15 -33 -14
-3 0 -7 -1 -10 -1 -3 -1 -8 -2 -12 -3 -22 -6 -228 -110 -291 -148 -40 -24 -80
-47 -90 -53 -64 -38 -256 -182 -326 -245 -76 -69 -202 -197 -251 -254 -27 -32
-54 -64 -60 -70 -23 -25 -123 -163 -140 -193 -11 -18 -23 -33 -28 -33 -4 0 -6
-4 -2 -9 3 -5 1 -12 -4 -15 -23 -15 -159 -268 -202 -378 -11 -29 -27 -66 -34
-83 -13 -27 -54 -146 -59 -170 -2 -5 -11 -37 -22 -70 -10 -33 -19 -64 -19 -70
0 -5 -4 -16 -8 -22 -5 -7 -6 -13 -4 -13 2 0 -2 -26 -10 -57 -20 -85 -20 -83
-28 -143 -4 -30 -9 -62 -10 -70 -8 -44 -16 -117 -21 -196 -10 -151 -10 -194
-1 -194 5 0 5 -6 0 -12 -5 -7 -8 -26 -7 -43 2 -16 6 -68 9 -115 3 -47 7 -98 9
-115 6 -50 18 -129 22 -150 2 -11 7 -33 10 -50 4 -26 16 -80 29 -135 2 -8 13
-49 24 -90 11 -41 21 -78 21 -81 0 -5 -1763 -3 -3525 4 l-570 2 -2 1514 c-2
1065 -6 1524 -13 1547 -6 18 -24 46 -38 61 -58 60 -38 57 -527 59 -429 1 -452
0 -493 -19 -48 -22 -87 -66 -98 -112 -9 -37 -12 -6633 -2 -6697 9 -61 42 -106
98 -132 45 -21 57 -21 490 -21 411 1 448 2 483 19 47 23 86 73 92 117 3 19 5
701 5 1516 l1 1482 1522 -4 c837 -3 1528 -5 1535 -5 46 0 224 0 235 0 6 0 37
0 67 0 30 0 63 0 73 0 9 0 37 0 62 0 25 0 52 0 60 0 8 0 27 0 43 1 15 0 36 0
47 -1 11 0 31 1 45 3 14 2 31 -1 38 -6 7 -6 12 -6 12 0 0 5 19 8 43 6 55 -4
56 -4 95 0 17 2 32 -1 32 -5 0 -5 8 -5 18 0 9 5 28 6 42 2 14 -4 34 -4 45 0
11 4 29 4 40 0 11 -4 32 -4 48 1 15 4 27 4 27 -1 0 -5 13 -5 30 0 17 5 30 5
30 0 0 -5 13 -5 30 0 18 5 30 5 30 0 0 -6 10 -6 25 0 15 6 27 6 30 0 3 -6 15
-6 30 0 15 6 25 6 25 0 0 -5 12 -5 30 0 17 5 30 5 30 0 0 -5 13 -5 30 0 17 5
30 5 30 0 0 -5 13 -5 30 0 17 5 30 6 30 2 0 -4 15 -6 32 -5 18 1 33 2 33 3 0
1 18 3 39 5 92 10 197 89 236 178 29 65 39 149 26 212 -11 55 -20 81 -29 93
-5 6 -6 12 -2 12 4 0 3 6 -3 13 -11 12 -70 157 -77 187 -2 8 -8 28 -15 44 -15
40 -68 245 -76 293 -9 59 -12 78 -14 78 -2 0 -4 20 -16 145 -15 147 -10 391
11 525 2 17 6 46 9 65 2 19 10 58 16 85 7 28 13 57 15 65 2 8 4 15 5 15 1 0 3
7 5 15 11 49 61 196 67 198 4 2 8 10 8 18 0 7 12 39 27 71 15 32 27 60 28 63
0 3 3 10 6 15 4 6 21 37 39 70 18 33 45 78 59 100 14 22 28 45 31 50 13 27
105 145 112 145 4 0 8 4 8 9 0 18 178 203 243 254 15 12 40 32 55 45 41 35
217 152 230 152 6 0 12 4 14 8 3 9 208 113 208 106 0 -2 18 5 40 16 22 11 40
18 40 14 0 -4 6 -2 13 4 24 19 248 78 367 96 186 27 405 27 595 -1 22 -3 49
-7 60 -8 191 -28 523 -153 692 -261 30 -19 58 -34 63 -34 6 0 10 -4 10 -10 0
-5 5 -10 10 -10 26 0 236 -173 345 -284 98 -100 139 -131 195 -151 94 -33 225
-21 298 28 20 13 93 80 162 148 69 68 140 135 159 149 31 23 56 43 88 70 64
54 336 207 439 246 40 16 68 25 72 24 1 0 15 6 32 15 16 8 38 15 50 15 11 0
20 4 20 8 0 5 6 9 13 10 20 1 70 12 102 22 34 11 75 19 125 26 19 3 42 7 49
10 54 18 409 25 521 11 109 -14 265 -45 320 -63 8 -3 17 -6 20 -6 8 -1 149
-53 200 -74 53 -20 249 -121 269 -137 7 -6 21 -16 31 -22 191 -111 425 -345
586 -587 107 -160 254 -495 277 -633 3 -16 12 -61 20 -100 8 -38 18 -88 21
-110 3 -22 8 -58 12 -80 4 -22 7 -46 7 -52 0 -7 3 -13 7 -13 3 0 12 -16 19
-35 17 -48 96 -124 157 -152 81 -37 179 -48 260 -29 46 10 111 50 149 92 74
78 87 179 50 384 -3 14 -7 39 -10 55 -8 50 -13 74 -35 160 -11 45 -23 91 -25
101 -30 138 -162 450 -265 629 -26 44 -53 91 -61 105 -8 14 -16 27 -19 30 -14
14 -50 70 -50 79 0 5 -3 11 -7 13 -5 2 -28 30 -53 63 -25 33 -47 62 -50 65 -3
3 -30 34 -60 70 -127 151 -324 330 -484 440 -28 19 -53 37 -56 40 -3 3 -17 11
-32 19 -16 8 -28 18 -28 23 0 4 -9 8 -19 8 -11 0 -21 4 -23 9 -5 14 -305 171
-328 171 -10 0 -18 3 -71 31 -12 6 -29 12 -38 14 -9 2 -47 15 -86 29 -38 14
-79 27 -90 29 -11 2 -27 6 -35 10 -8 3 -35 10 -60 15 -25 6 -58 14 -75 18 -30
8 -39 9 -85 17 -14 3 -38 7 -55 10 -16 3 -48 8 -70 11 -22 3 -62 9 -90 13 -89
13 -590 7 -590 -7 0 0 -20 -3 -45 -5 -46 -4 -83 -10 -132 -20 -75 -14 -76 -14
-138 -30 -11 -3 -28 -7 -38 -9 -144 -33 -457 -151 -549 -208 -18 -11 -33 -17
-33 -14 0 3 -16 -6 -36 -19 -20 -14 -43 -25 -50 -25 -8 0 -14 -4 -14 -9 0 -5
-8 -12 -17 -15 -21 -7 -36 -17 -118 -71 -33 -21 -63 -44 -67 -50 -4 -5 -8 -7
-8 -3 0 5 -10 -1 -22 -11 -13 -10 -63 -51 -111 -89 -98 -78 -88 -77 -153 -14
-13 12 -26 22 -30 22 -3 0 -23 14 -43 30 -20 17 -41 35 -47 39 -18 14 -187
125 -209 137 -11 6 -60 32 -110 58 -49 27 -94 51 -100 54 -5 4 -14 7 -20 8 -5
1 -39 16 -75 33 -36 18 -72 33 -80 35 -8 2 -22 6 -30 9 -35 15 -197 69 -219
74 -14 2 -28 6 -31 8 -8 5 -184 45 -220 50 -14 2 -25 5 -25 6 0 1 -16 3 -35 4
-19 2 -35 4 -35 5 0 1 -11 3 -25 5 -14 2 -43 6 -65 9 -56 7 -324 23 -328 20z"/>
<path d="M21040 15994 c-35 -16 -55 -34 -74 -67 l-27 -45 0 -1524 0 -1523
-1142 -3 c-628 -2 -1684 -4 -2347 -6 -1137 -2 -1208 -4 -1260 -21 -69 -23
-116 -52 -158 -99 -18 -20 -31 -36 -28 -36 9 0 -144 -291 -216 -409 -21 -34
-38 -65 -38 -67 0 -3 -4 -10 -10 -17 -5 -7 -42 -61 -82 -122 -39 -60 -75 -112
-78 -115 -3 -3 -22 -27 -40 -55 -19 -27 -39 -55 -45 -62 -16 -20 -29 -35 -60
-78 -37 -49 -42 -55 -151 -185 -158 -189 -334 -373 -591 -617 -78 -73 -116
-108 -273 -242 -41 -36 -79 -70 -85 -75 -5 -6 -26 -23 -45 -37 -19 -15 -45
-35 -56 -45 -12 -11 -36 -30 -54 -44 -18 -14 -38 -30 -44 -35 -44 -42 -499
-382 -621 -465 -27 -18 -52 -36 -55 -39 -3 -3 -45 -33 -95 -66 -49 -33 -92
-62 -95 -65 -14 -14 -102 -70 -110 -70 -6 0 -10 -4 -10 -10 0 -5 -6 -10 -13
-10 -7 0 -26 -11 -43 -24 -24 -21 -122 -84 -404 -261 -19 -12 -53 -33 -75 -47
-89 -56 -148 -80 -181 -75 -37 6 -216 93 -243 118 -10 9 -27 20 -39 23 -12 4
-22 12 -22 17 0 5 -4 9 -9 9 -8 0 -193 118 -217 138 -18 16 -122 82 -161 103
-13 7 -23 16 -23 21 0 4 -4 8 -10 8 -9 0 -309 196 -320 209 -3 3 -48 35 -100
70 -52 35 -96 68 -98 73 -2 4 -9 8 -16 8 -7 0 -21 8 -32 18 -10 9 -71 55 -134
102 -63 46 -122 90 -130 97 -8 7 -51 40 -95 75 -44 35 -81 66 -83 70 -2 5 -10
8 -18 8 -8 0 -14 3 -14 8 0 4 -28 30 -62 57 -34 28 -70 57 -78 65 -9 8 -45 39
-81 69 -35 30 -71 62 -80 70 -9 9 -47 43 -85 76 -141 124 -527 515 -641 651
-24 28 -53 62 -65 76 -13 14 -43 49 -68 77 -84 96 -209 132 -324 94 -54 -17
-56 -18 -125 -80 -43 -38 -99 -128 -105 -167 -1 -8 -4 -18 -7 -20 -3 -3 -4
-37 -3 -76 3 -81 30 -150 88 -220 151 -183 267 -309 472 -514 124 -125 324
-316 330 -316 2 0 14 -10 27 -22 41 -40 205 -182 242 -211 26 -20 133 -109
150 -124 8 -7 18 -13 24 -13 6 0 11 -4 11 -8 0 -4 24 -26 53 -47 28 -22 57
-44 63 -50 6 -5 23 -19 38 -30 15 -11 51 -38 80 -60 106 -80 120 -91 185 -137
36 -26 79 -58 95 -70 16 -13 59 -44 95 -69 36 -25 95 -66 131 -91 136 -94 289
-196 395 -263 61 -38 111 -73 113 -77 2 -5 7 -8 12 -8 5 0 56 -29 113 -65 58
-36 110 -65 116 -65 6 0 11 -4 11 -8 0 -5 17 -17 38 -28 20 -10 44 -24 52 -30
8 -6 42 -26 75 -44 33 -18 67 -38 75 -45 34 -27 210 -105 279 -124 56 -16 95
-19 165 -16 100 4 146 11 161 26 5 5 16 9 25 9 31 0 260 126 358 197 27 19 43
29 106 62 25 14 46 28 46 33 0 4 4 8 10 8 5 0 76 43 157 96 181 118 285 187
298 197 6 4 62 43 125 86 63 44 120 84 127 90 7 6 15 11 17 11 3 0 25 15 49
33 24 17 54 40 68 50 76 54 155 112 159 117 3 3 27 22 54 41 28 18 58 41 67
49 10 8 24 20 31 25 21 16 141 109 158 122 202 163 322 263 425 355 16 14 41
36 55 48 194 165 500 466 735 724 6 6 39 45 74 86 35 41 67 77 70 80 3 3 24
28 46 55 21 28 42 52 45 55 17 16 229 299 241 323 7 12 18 27 25 35 11 11 133
198 167 257 7 11 14 22 17 25 3 3 14 21 24 40 10 19 35 64 54 100 43 80 35 72
72 76 18 2 36 6 41 9 5 4 9 3 9 -2 0 -9 84 -8 99 2 5 3 12 1 16 -4 3 -7 15 -7
30 -1 14 5 27 5 30 0 3 -5 18 -5 35 0 18 5 32 5 35 -1 4 -5 13 -5 23 0 11 6
24 6 35 0 9 -6 17 -6 17 -2 0 10 41 10 57 0 7 -4 14 -4 17 1 5 9 47 9 63 -1 5
-4 13 -4 17 0 9 10 56 10 56 0 0 -4 5 -5 11 -2 17 11 59 13 65 3 3 -4 10 -5
17 -1 15 9 98 10 104 0 2 -4 9 -4 16 0 16 9 87 10 87 0 0 -4 5 -5 10 -2 16 10
100 12 106 3 3 -5 11 -5 17 -1 16 10 177 10 177 0 0 -5 5 -5 12 -1 7 4 729 9
1605 11 l1592 3 0 -1500 c0 -1481 1 -1500 21 -1539 23 -45 60 -75 110 -88 19
-5 231 -9 471 -8 472 0 467 0 517 55 40 44 42 49 50 92 4 24 7 1538 6 3364 -1
2764 -3 3328 -14 3355 -16 40 -60 85 -98 101 -19 8 -160 12 -470 13 -439 1
-444 1 -492 -21z"/>
<path d="M1558 15407 c-46 -11 -105 -67 -117 -110 -4 -18 -8 -1267 -9 -2776 0
-2961 -3 -2791 51 -2845 50 -50 72 -52 550 -51 l445 0 38 31 c82 66 87 86 83
314 0 8 0 49 1 90 0 41 0 82 -1 90 0 8 0 40 0 70 0 30 0 62 0 70 0 8 0 49 1
90 0 41 0 82 -1 90 0 8 0 40 0 70 0 30 0 62 0 70 0 8 0 49 1 90 0 41 0 82 -1
90 0 8 0 40 0 70 0 30 0 62 0 70 0 8 0 49 1 90 0 41 0 82 -1 90 0 8 0 40 0 70
0 30 0 62 0 70 0 8 0 49 1 90 0 41 0 82 -1 90 0 8 0 40 0 70 0 30 0 62 0 70 0
8 0 49 1 90 0 41 0 82 -1 90 0 8 0 40 0 70 0 30 0 62 0 70 0 8 0 49 1 90 0 41
0 82 -1 90 0 8 0 47 1 87 1 40 -1 77 -5 82 -3 6 -3 11 2 11 4 0 8 29 8 64 0
35 -3 62 -7 60 -4 -3 -4 5 0 17 5 12 6 40 2 60 -4 21 -5 41 -3 43 8 8 8 124 1
119 -5 -2 -4 7 1 20 6 14 8 27 6 29 -5 5 -7 60 -3 135 2 33 0 59 -4 57 -4 -3
-4 5 0 17 5 12 6 40 2 60 -4 21 -5 41 -3 43 8 8 9 124 1 120 -4 -3 -4 5 0 17
5 12 6 40 2 61 -4 21 -5 38 -1 38 3 0 6 29 6 64 0 35 -3 62 -7 60 -4 -3 -4 5
0 17 5 12 6 40 2 60 -4 21 -5 41 -3 43 8 8 8 124 1 119 -5 -2 -4 7 1 20 6 14
8 27 6 29 -5 5 -7 60 -3 135 2 33 0 59 -4 57 -4 -3 -4 5 0 17 5 12 6 40 2 60
-4 21 -5 41 -3 43 8 8 9 124 1 120 -4 -3 -4 5 0 17 5 12 6 40 2 61 -4 21 -5
38 -1 38 3 0 6 29 6 64 0 35 -3 62 -7 60 -4 -3 -4 5 0 17 5 12 6 40 2 60 -4
21 -5 41 -3 43 8 8 8 124 1 119 -5 -2 -4 7 1 20 6 14 8 27 6 29 -5 5 -7 60 -3
135 2 33 0 59 -4 57 -4 -3 -4 5 0 17 5 12 6 40 2 60 -4 21 -5 41 -3 43 8 8 9
124 1 120 -4 -3 -4 5 0 17 5 12 6 40 2 61 -4 21 -4 38 -1 38 7 0 4 85 -4 107
-2 6 0 13 5 15 5 2 -1 26 -14 55 -17 36 -37 60 -67 80 l-42 28 -441 0 c-243 1
-458 -3 -478 -8z"/>
<path d="M22500 15410 c-56 -12 -114 -66 -128 -120 -2 -8 -5 -1252 -5 -2765
-2 -1981 1 -2758 9 -2781 6 -18 22 -46 35 -62 45 -55 62 -57 549 -57 l445 0
42 25 c30 16 50 38 65 69 l22 46 1 2749 c0 2068 -3 2759 -12 2784 -13 40 -47
78 -88 100 -26 14 -85 16 -470 17 -242 0 -451 -2 -465 -5z"/>
<path d="M162 14749 c-69 -9 -141 -58 -142 -96 0 -7 -4 -13 -10 -13 -11 0 -15
-4153 -4 -4207 7 -34 45 -80 89 -108 28 -18 56 -19 490 -19 404 0 464 2 490
16 44 24 82 68 92 108 11 44 10 4166 -1 4200 -15 43 -46 80 -89 101 -39 20
-56 21 -451 23 -226 0 -435 -2 -464 -5z"/>
<path d="M23984 14750 c-80 -5 -95 -8 -127 -33 -76 -58 -70 137 -71 -2177 -1
-1161 2 -2090 7 -2110 11 -43 50 -87 97 -109 32 -14 91 -16 485 -15 297 1 459
5 476 12 35 14 73 50 93 89 15 30 16 201 16 2126 l0 2093 -26 41 c-26 40 -74
77 -104 79 -8 1 -17 3 -20 3 -15 5 -749 5 -826 1z"/>
</g>
</svg>
